<svg xmlns="http://www.w3.org/2000/svg" viewBox="0 0 512 512">
  <!-- Maskable icon: safe area is center 80% (51.2 to 460.8). Bg fills full -->
  <defs>
    <linearGradient id="bg" x1="0" y1="0" x2="1" y2="1">
      <stop offset="0%" stop-color="#b71c1c"/>
      <stop offset="100%" stop-color="#e53935"/>
    </linearGradient>
  </defs>
  <rect width="512" height="512" fill="url(#bg)"/>
  <g transform="translate(256 256) scale(4.3) translate(-32 -32)">
    <path fill="#0d0d0d" d="M10 30 L16 6 L26 24 Z"/>
    <path fill="#0d0d0d" d="M54 30 L48 6 L38 24 Z"/>
    <path fill="#3a1414" d="M18 12 L22 18 L20 22 Z"/>
    <path fill="#3a1414" d="M46 12 L42 18 L44 22 Z"/>
    <ellipse cx="32" cy="38" rx="22" ry="20" fill="#0d0d0d"/>
    <ellipse cx="23" cy="36" rx="3.2" ry="5.5" fill="#ffe066"/>
    <ellipse cx="41" cy="36" rx="3.2" ry="5.5" fill="#ffe066"/>
    <ellipse cx="23" cy="36" rx="1" ry="4" fill="#0d0d0d"/>
    <ellipse cx="41" cy="36" rx="1" ry="4" fill="#0d0d0d"/>
    <circle cx="22" cy="34" r="0.8" fill="white"/>
    <circle cx="40" cy="34" r="0.8" fill="white"/>
    <path d="M30 44 L32 46 L34 44 Z" fill="#ff8a9a"/>
    <path d="M28 47 Q32 51 36 47" stroke="#3a3a3a" stroke-width="1.2" fill="none" stroke-linecap="round"/>
  </g>
</svg>
